<?xml version="1.0" encoding="utf-8"?>
<!-- Generator: Adobe Illustrator 26.5.0, SVG Export Plug-In . SVG Version: 6.00 Build 0)  -->
<svg version="1.1" id="Calque_1" xmlns="http://www.w3.org/2000/svg" xmlns:xlink="http://www.w3.org/1999/xlink" x="0px" y="0px"
	 viewBox="0 0 361 144.5" style="enable-background:new 0 0 361 144.5;" xml:space="preserve">
<style type="text/css">
	.st0{fill:#ECECEC;}
</style>
<g>
	<path class="st0" d="M13.2,136.6h3.2h4.4c0,0.2,0.2,0.4,0.2,0.7c0,0-0.9,0.4-0.9,0.9c-0.5,0.5-1.1,1.4-2,1.4
		c-3.2,0.5-5.5,0.5-8.9,0.5H6.1C4.7,139.1,5,136.4,5,135c0-1.1-0.4-4.4-0.4-4.8V65.7c0-1.4-0.5-9.2-0.5-10.7V17.6
		c0.5-0.5,1.4-2.5,2-2.5h1.6V48c0,0.7,0,3.4,0.2,5.7c0.2,2.3,0.4,4.3,0.4,5v64.5c0,0.2,0.2,1.2,0.2,2c0.2,1.2,0.2,2.3,0.2,2.8v0.7
		c0,2.1-0.5,5.2,2.5,7.3L13.2,136.6z M12.1,127.9c0-1.1-0.4-4.4-0.4-4.8V58.6c0-1.4-0.5-9.2-0.5-10.7V10.5c0.5-0.5,1.4-2.5,2-2.5
		h24.9c2.8,0,6.6,0.4,9.2,1.8c1.4,0.5,2.5,2,3.4,2.8c5.2,5.7,6.8,13.1,6.8,20.6c0,4.8,0.2,16.3-0.2,21.1c0,0.5-0.5,5.7-0.5,6.2
		c0,0.4-0.5,3.7-0.5,4.1c-0.9,4.8-5.7,10.7-10.7,12.8c-2,0.9-5.2,1.4-7.5,1.4c-1.4,0-8.2,0.5-9.4,0.5l-0.5,0.4
		c0.4,16.5-0.7,32.3,0,50.5c0,0-0.9,0.4-0.9,0.9c-0.5,0.5-1.1,1.4-2,1.4c-3.2,0.5-5.5,0.5-8.9,0.5h-3.2
		C11.8,132,12.1,129.3,12.1,127.9z M27.6,63.1c0,1.8,0.2,2.3,1.6,2.3c5.2,0,10.7-2,11.7-7.1c0.4-3.9,0.4-9.4,0.4-13.1
		c0-5.7,0-9.4-0.4-15.6c-0.5-4.6-5.2-6.4-9.4-6.4c-1.1,0-2.8-0.5-3.4,1.4c0,5.5-0.5,32.3-0.5,38V63.1z M31.7,32.5v-5.9
		c2.8,0.2,5.3,1.1,5.7,3c0.4,6.2,0.4,9.8,0.4,15.5c0,3.6,0,8.9-0.4,12.8v-0.4c-0.5,1.6-1.8,2.7-3.4,3.4c0.2-3,0.2-6.2,0.2-8.7
		c0-5.7,0-9.4-0.4-15.6C33.6,34.8,32.7,33.6,31.7,32.5z M31.7,86v-3c0.5,0,1.2,0,1.8-0.2c2.1-0.2,4.3-0.4,4.6-0.4
		c1.2,0,2.8,0,4.4-0.4c-1.2,1.1-2.7,2-4.1,2.5C36.6,85.4,33.8,86,31.7,86z"/>
	<path class="st0" d="M64.5,15.6h1.6c0.2,2.3,0.5,4.8,1.4,6.8c-0.2,0.5-0.2,1.1-0.2,1.4V38c-0.5,1.8-0.9,4.3-0.9,4.8
		c0,1.6,0.2,3.4,0.4,4.8c0.2,2,0.4,4.4,0.2,5.9c0,7.3-0.4,19.2-0.5,28.6c-0.2,9.2-0.4,18.1-0.4,24.2c0,14.2,4.1,30.9,27.9,30.9
		c3.2,0,6.2-0.4,8.9-0.9c-3.9,2.8-9.1,4.4-16,4.4c-20.8,0-24.3-14.7-24.3-27.4c0-12.6,0.9-37.5,0.9-52.4c0.4-3.4-0.5-7.6-0.5-11
		c0-0.5,0.5-3.9,0.9-4.4V30.9c0-0.5,0.5-1.6,0.5-2c-2.7-1.1-1.2-10.7-1.2-11.9C63.1,16.5,63.5,15.6,64.5,15.6z M120.5,65.7
		c0,5.2-0.2,9.6-0.2,13.5c-0.2,10.1-0.2,17.9-0.2,29.5c0,0.5-0.5,2.5-0.5,3c-2.7,12.3-8.7,21.9-25.6,21.9
		c-20.8,0-24.3-14.7-24.3-27.4s0.9-37.5,0.9-52.4c0.4-3.4-0.5-7.6-0.5-11c0-0.5,0.5-3.9,0.9-4.4V23.8c0-0.5,0.5-1.6,0.5-2
		c-2.7-1.1-1.2-10.7-1.2-11.9c0-0.5,0.4-1.4,1.4-1.4L82.8,8c3.7-0.2,5.3,1.2,5.3,5L88,111.7c0,1.6,2.7,6.4,4.1,6.4h6.4
		c1.6,0,4.1-3.4,4.1-4.8l0.5-11v-41l0.5-22.4l-0.5-10.7V11.5c-0.5-1.1-0.5-1.6-0.5-2c0-2.1,11.7-1.2,15.5-1.2c0.5-0.2,2.5,0,2.5,1.4
		v22.9l-0.5,14L120.5,65.7z M99.5,15.4v13l0.5,10.7l-0.5,22.2v40.9L99,113.3c0,0.4-0.4,1.2-0.5,1.2h-2.8l0.4-5.2v-41L96.5,46
		L96,35.3V18.6c-0.5-1.1-0.5-1.6-0.5-2C95.5,16,97.2,15.6,99.5,15.4z"/>
	<path class="st0" d="M137,137.5l34.3-0.4l-1.4,1.2c-0.5,0-2.5,1.1-3,1.6c-0.5,0.2-1.4,0.7-1.4,0.7l-32.3,0.4l-0.7-6.9
		c0-2-1.8-46.2-2-63.1c0-3-0.4-26.5-0.5-33.8c-0.2-5.5-0.4-21-0.4-22l0.2-0.9h3.4c0,5.3,0.2,12.6,0.4,16v-0.2
		c0.9,35.2,0.9,53.3,2.1,86.5c0.2,5.9,0.4,10,0.4,10.5L137,137.5z M139.5,127c0-2-1.8-46.2-2-63.1c0-3-0.4-26.5-0.5-33.8
		c-0.2-5.5-0.4-21-0.4-22l0.2-0.9l17.9-0.4c12.1,0.4,12.1,0.7,12.1,0.7c1.4,0.5,3.9,1.1,5.5,2.5c0.9,0.9,3.9,3.9,4.6,4.4
		c0.5,0.5,2,3,2,3.6l0.9,1.4c1.6,7.8,2.3,15.8,2.5,23.6c0,7.1-0.7,11.5-3.6,17.6c0,0-1.1,1.1-1.1,1.6c-0.5,0.4-2,2.5-2,2.5
		c-1.1,0.9-2.5,0.9-2.3,2.5c0,1.8,3.4,3.4,4.4,4.3c1.1,1.1,3.6,2.8,3.6,3.4c1.4,2.1,3,6,3.7,8.5c1.4,5.9,1.4,11.9,1.6,17.9
		c0.2,9.4-1.1,23.8-9.8,29.9c-0.5,0-2.5,1.1-3,1.6c-0.5,0.2-1.4,0.7-1.4,0.7l-32.3,0.4L139.5,127z M154.5,59.2c0,1.4,2,2,2.8,2
		c4.1-0.2,6.6-1.6,8.4-4.6c0,0,0.5-1.1,0.5-1.6c0-1.1-0.2-4.4-0.2-5.3V44c0-2.5-0.7-12.8-0.9-15.3c-0.5-2-2-3.6-3.4-4.4
		c-1.1-1.1-2-0.5-3-0.5c-1.4,0.2-5-0.4-5,2.1L154.5,59.2z M156.8,118.3c1.6,0.9,2.1,0.4,3.6,0.4c5.2,0,8-1.6,10-6
		c-0.2-2.1-0.4-11-0.4-13c0-3.6-0.2-12.4-0.2-13c0-1.4-0.7-6-0.7-6.4c0-0.5-1.1-2.5-1.4-3.4c-1.6-2.5-6.4-2.5-8.5-2.5
		c-0.4,0-2,0.2-2.5,0.2c-0.9,0.4-0.9,2-0.9,2.5l0.7,40.7L156.8,118.3z M157.5,34.6l-0.2-7.3h2.5c2.3,1.2,2.7,11.7,2.7,16.7v8
		c0,1.1,0.2,2.1,0.2,2.7c-0.9,1.4-2.1,2.5-3.7,2.8v-0.9v-5.5c0-2.5-0.7-12.8-0.9-15.3L157.5,34.6z M165.3,81.2h0.2
		c0,0.2,0.5,5.7,0.7,5.7v2c0,8-0.2,12.8,0.4,23.3c-0.9,1.4-2.1,2.3-3.7,2.8v-8.2c0-3.6-0.2-12.4-0.2-13c0-1.4-0.7-6-0.7-6.4
		c0-0.5-1.1-2.5-1.4-3.4c-0.4-0.4-0.7-0.9-1.2-1.1v-5c1.4,0,4.4,0.2,5.3,0.9C164.9,79.6,165.1,81.2,165.3,81.2z"/>
	<path class="st0" d="M235.6,24c-2,6.4-2.3,13.5-2.5,20.1l-1.1,63.6c0,3.4,0.9,7.5,1.8,10.5l-0.2-0.9l0.4,1.2
		c3.4,12.4,10.5,18.7,22.6,18.7c2.8,0,5-0.2,7.1-0.7l-0.9,0.7c-4.8,2.5-7.6,3.7-13.3,3.6c-10.3,0-16.3-5.2-19-15.3
		c-1.1-3.6-2.1-6.6-2-10.7l1.1-63.6C229.6,41.4,230.3,31.4,235.6,24z M269.9,130c-4.8,2.5-7.6,3.7-13.3,3.6
		c-10.3,0-16.3-5.2-19-15.3c-1.1-3.6-2.1-6.6-2-10.7l1.1-63.6c0.2-13.7,1.4-27.7,14.9-34.6c2.8-1.4,5.5-2,8.5-1.8
		c10.7,0.2,19.4,1.8,22.7,13.1c0.5,1.4,1.4,5.5,1.4,6l-0.5,27.7l-12.6-0.2l-1.1-1.1l0.4-23.8c0,0-1.4-2-2-2.8
		c-1.1-1.6-3.4-2.1-5-2.3c-3.7,0-6.6,0.4-8.2,3.9c-0.2,0.5-0.7,1.6-0.7,1.6l-1.4,83.7c0,2.5,3.7,4.3,5.7,4.3c4.1,0,7.6-2.5,7.6-6.6
		l0.5-21.9c0-1.1-0.5-3-1.1-4.1l-0.5-0.5l-5.2-0.2l-1.1-0.9l0.4-10.1c0-1.1,1.1-1.6,1.6-1.6c2,0,11.5,0.2,13.7,0.2
		c1.1,0,8.2-0.4,9.1-0.4h0.5l1.1,1.1c0,1.1-0.2,7.1-0.2,8c-0.2,2.1-0.2,7.6-0.2,8.2c0,6.2-1.1,35.2-1.2,41.2c0,1.1,0,3-1.4,3
		l-6.6-0.2c-1.1,0-2.1-3.9-4.1-3.9l-0.5-0.2L269.9,130z M259.5,88.1c0.9,0,2.3,0,3.7,0.2c0,0.4,0.2,0.9,0.4,1.1l-0.5,21.9
		c0,1.8-1.6,2.8-3.6,3l0.5-17.8c0-1.1-0.5-3-1.1-4.1l-0.5-0.5H257c0-1.6,0.2-3.4,0.2-5L259.5,88.1z M258.2,31.8v-1.1
		c0,0,0.4-0.9,0.5-1.4c0.7-1.2,2.1-1.4,4.4-1.4c0.9,0,2,0.4,2.3,0.7v-0.2c0.4,0.9,1.1,1.8,1.4,2.3l-0.4,24l3.2,3.2l6.9,0.2v3.6
		l-12.6-0.2l-1.1-1.1l0.4-23.8c0,0-1.4-2-2-2.8C260.7,32.7,259.5,32.1,258.2,31.8z M271.5,133.4v-0.2c1.1,2,2,3.4,4.4,3.4h0.9v0.7
		c0,1.1,0,3-1.4,3l-6.6-0.2c-1.1,0-2.1-3.9-4.1-3.9l-0.2-0.2c2.1-0.7,4.3-1.6,6.8-2.8L271.5,133.4z"/>
	<path class="st0" d="M322.4,15.3c-3.4,11-7.6,23.1-11.9,35c-3.9,10.8-7.6,22.2-10.8,32.2c-1.1,3.2-1.8,6.6-2.3,9.1
		c-0.4,1.6-0.5,3.4-0.9,4.6v5.2c0,7.1-0.9,12.8,4.4,12.8h5.3c5.7,0.2,13.3,0,20.3,0c-0.5,0.4,0.4,6.9,0.2,9.4c0,0.7-0.2,1.4-0.2,2
		c-0.5,3.9,2.7,10,2.7,10l4.4,1.1c2,0,4.3,0.2,6.6,0.2c-0.2,1.4,0.5,2.5,0.2,2.7c-0.2,1.4-13.7,0.7-16.7,0.7c0,0-1.2-3-0.7-6.9
		c0.2-4.1,1.4-15.1-1.6-15.1c-10.3,0-25.2-0.4-27.5-0.4c-1.4,0-0.9-6.9-0.9-14c0.9-3,0.2-7.6,2-13c7.1-22.2,16.9-48.2,23.5-69.7
		C318.6,18.6,320.9,15.4,322.4,15.3z M347.2,111.4c0,5.9-0.2,11.9,0,17.8c-0.2,1.8,0.5,2.8,0.2,3c-0.2,1.4-13.7,0.7-16.7,0.7
		c0,0-1.2-3-0.7-6.9c0.2-4.1,1.4-15.1-1.6-15.1c-10.3,0-25.2-0.4-27.5-0.4c-1.4,0-0.9-6.9-0.9-14c0.9-3,1.2-7.6,3-13
		c7.1-22.2,17.1-48.3,23.6-69.8c0.4-2.3,1.6-5.5,3-5.5h16.2l0.7,1.1c0.9,27.9,0,52.2,0.5,80.1v3.9c0,3.7,3.4,2.7,3.4,2.7
		c3.7,0,5.7-1.1,5.7,2.7l-0.4,7.3c0,3.7,1.1,4.6-2.7,4.6l-5.3,0.2L347.2,111.4z M328,95.6c0.9,0,1.6-1.4,1.6-2
		c0.7-5.9-0.5-11.2,0.2-16c0.2-8,2.1-26.3,0.7-30l-0.9,1.1c-3,12.3-7.8,24.9-10.7,37.3c-0.5,1.4-3,8.9-1.1,9.6H328z M322.5,86
		c1.1-4.4,2.5-9.4,3.9-14.2c-0.2,2-0.2,3.9-0.2,5.3c-0.4,2.3-0.4,5.3-0.2,8.2c0.2,2.1,0.4,4.4,0.2,6.8h-3.7
		C322.5,90.1,322.4,87.9,322.5,86z"/>
</g>
<text transform="matrix(1 0 0 1 -1039.224 132.8923)" class="st0" style="font-family:'CheapPine'; font-size:177.6859px;">pub g4</text>
</svg>
